<svg
  xmlns="http://www.w3.org/2000/svg"
  width="24"
  height="24"
  viewBox="0 0 24 24"
  fill="none"
  stroke="currentColor"
  stroke-width="2"
  stroke-linecap="round"
  stroke-linejoin="round"
  role="img"
  aria-label="achievement icon"
>
  <!-- Trophy body -->
  <path d="M6 9H4.5C3.12 9 2 7.88 2 6.5v-1C2 4.12 3.12 3 4.5 3h15C20.88 3 22 4.12 22 5.5v1C22 7.88 20.88 9 19.5 9H18" />
  <!-- Trophy cup -->
  <path d="M6 9V19C6 20.1 6.9 21 8 21H16C17.1 21 18 20.1 18 19V9" />
  <!-- Star inside trophy -->
  <path d="M12 14L13.6 15.7L16 14.9L15.2 17.3L16.9 19L14.5 18.8L12.8 21L12 18.6L10.3 21L8.6 19L10.3 17.3L9.5 14.9L11.9 15.7L12 14Z" />
  <!-- Base -->
  <path d="M9 21H15" />
</svg>